<svg xmlns="http://www.w3.org/2000/svg" xmlns:xlink="http://www.w3.org/1999/xlink" width="500" zoomAndPan="magnify" viewBox="0 0 375 374.999991" height="500" preserveAspectRatio="xMidYMid meet" version="1.2"><defs><clipPath id="aad19c9c0a"><path d="M 37.5 170 L 58 170 L 58 201 L 37.5 201 Z M 37.5 170 "/></clipPath><clipPath id="cd47b61cd9"><path d="M 59 165.136719 L 85 165.136719 L 85 200 L 59 200 Z M 59 165.136719 "/></clipPath><clipPath id="63d0ef5857"><path d="M 160 165.136719 L 180 165.136719 L 180 200 L 160 200 Z M 160 165.136719 "/></clipPath><clipPath id="91db21fd89"><path d="M 313 175 L 337.5 175 L 337.5 200 L 313 200 Z M 313 175 "/></clipPath></defs><g id="3e8f470736"><g clip-rule="nonzero" clip-path="url(#aad19c9c0a)"><path style=" stroke:none;fill-rule:nonzero;fill:#fef6e5;fill-opacity:1;" d="M 52.703125 200.015625 C 50.222656 200.015625 48.164062 199.5625 46.535156 198.660156 C 44.90625 197.753906 43.707031 196.5 42.902344 194.910156 C 42.117188 193.320312 41.714844 191.511719 41.714844 189.480469 L 41.714844 183.183594 L 37.808594 183.183594 L 37.808594 176.28125 L 41.714844 176.28125 L 41.714844 170.539062 L 49.988281 170.539062 L 49.988281 176.28125 L 57.539062 176.28125 L 57.539062 183.183594 L 49.988281 183.183594 L 49.988281 189.207031 C 49.988281 190.308594 50.300781 191.171875 50.933594 191.769531 C 51.566406 192.363281 52.40625 192.660156 53.480469 192.660156 C 54.0625 192.660156 54.746094 192.582031 55.535156 192.429688 C 56.3125 192.273438 56.984375 192.039062 57.539062 191.730469 L 57.539062 199.046875 C 56.957031 199.34375 56.195312 199.589844 55.277344 199.757812 C 54.359375 199.925781 53.503906 200.015625 52.703125 200.015625 Z M 52.703125 200.015625 "/></g><g clip-rule="nonzero" clip-path="url(#cd47b61cd9)"><path style=" stroke:none;fill-rule:nonzero;fill:#fef6e5;fill-opacity:1;" d="M 67.753906 199.28125 L 59.476562 199.28125 L 59.476562 165.691406 L 67.753906 165.691406 L 67.753906 176.964844 C 68.554688 176.539062 69.40625 176.191406 70.324219 175.945312 C 71.242188 175.699219 72.226562 175.582031 73.273438 175.582031 C 76.890625 175.582031 79.59375 176.617188 81.390625 178.699219 C 83.175781 180.765625 84.082031 183.664062 84.082031 187.371094 L 84.082031 199.28125 L 75.804688 199.242188 L 75.804688 188.253906 C 75.804688 186.960938 75.46875 185.820312 74.8125 184.839844 C 74.152344 183.855469 73.195312 183.363281 71.941406 183.363281 C 70.621094 183.363281 69.589844 183.816406 68.851562 184.722656 C 68.113281 185.628906 67.753906 186.804688 67.753906 188.253906 L 67.753906 199.292969 Z M 67.753906 199.28125 "/></g><path style=" stroke:none;fill-rule:nonzero;fill:#fef6e5;fill-opacity:1;" d="M 97.976562 199.925781 C 95.523438 199.925781 93.324219 199.410156 91.371094 198.386719 C 89.433594 197.367188 87.894531 195.917969 86.769531 194.058594 C 85.65625 192.195312 85.101562 190.011719 85.101562 187.488281 C 85.101562 185.277344 85.605469 183.261719 86.628906 181.414062 C 87.648438 179.578125 89.082031 178.101562 90.933594 177.003906 C 92.78125 175.90625 94.914062 175.351562 97.34375 175.351562 C 99.777344 175.351562 101.972656 175.90625 103.730469 177.003906 C 105.488281 178.101562 106.820312 179.5625 107.726562 181.359375 C 108.632812 183.160156 109.082031 185.070312 109.082031 187.113281 L 109.082031 189.195312 L 93.066406 189.195312 C 93.335938 190.332031 93.894531 191.226562 94.734375 191.886719 C 95.585938 192.542969 96.632812 192.878906 97.902344 192.878906 C 99 192.878906 99.96875 192.609375 100.808594 192.066406 C 101.664062 191.511719 102.285156 190.785156 102.671875 189.90625 L 109.019531 193.074219 C 108.035156 195.21875 106.589844 196.914062 104.6875 198.128906 C 102.789062 199.332031 100.539062 199.9375 97.964844 199.9375 Z M 93.414062 184.917969 L 100.824219 184.917969 C 100.628906 184.269531 100.226562 183.703125 99.621094 183.210938 C 99 182.707031 98.210938 182.445312 97.230469 182.445312 C 96.246094 182.445312 95.417969 182.691406 94.773438 183.183594 C 94.113281 183.675781 93.660156 184.257812 93.414062 184.929688 Z M 93.414062 184.917969 "/><path style=" stroke:none;fill-rule:nonzero;fill:#fef6e5;fill-opacity:1;" d="M 122.527344 200.015625 C 119.582031 200.015625 117.007812 199.410156 114.824219 198.21875 C 112.640625 197.03125 111.011719 195.273438 109.925781 192.972656 L 117.007812 189.429688 C 117.863281 191.265625 119.699219 192.183594 122.527344 192.183594 C 123.667969 192.183594 124.609375 192.015625 125.359375 191.664062 C 126.109375 191.304688 126.5 190.761719 126.5 190.023438 C 126.5 189.105469 126.070312 188.511719 125.230469 188.238281 C 124.390625 187.953125 123.265625 187.710938 121.871094 187.488281 C 120.691406 187.308594 119.453125 187.050781 118.132812 186.699219 C 116.816406 186.339844 115.5625 185.808594 114.382812 185.085938 C 113.207031 184.359375 112.25 183.390625 111.515625 182.1875 C 110.777344 180.972656 110.414062 179.449219 110.414062 177.597656 C 110.414062 175.75 110.933594 173.992188 111.96875 172.480469 C 113.015625 170.96875 114.449219 169.765625 116.257812 168.871094 C 118.070312 167.980469 120.125 167.527344 122.425781 167.527344 C 125.152344 167.527344 127.597656 168.136719 129.757812 169.324219 C 131.929688 170.527344 133.53125 172.273438 134.566406 174.574219 L 127.480469 178.117188 C 127.054688 177.355469 126.40625 176.707031 125.527344 176.164062 C 124.648438 175.621094 123.5 175.363281 122.0625 175.363281 C 119.96875 175.363281 118.921875 176.007812 118.921875 177.300781 C 118.921875 178.15625 119.386719 178.777344 120.320312 179.136719 C 121.261719 179.5 122.476562 179.808594 123.976562 180.054688 C 125.140625 180.238281 126.367188 180.507812 127.636719 180.855469 C 128.902344 181.207031 130.105469 181.75 131.21875 182.472656 C 132.339844 183.195312 133.257812 184.152344 133.957031 185.34375 C 134.667969 186.53125 135.019531 188.070312 135.019531 189.945312 C 135.019531 191.820312 134.449219 193.550781 133.335938 195.066406 C 132.210938 196.589844 130.710938 197.792969 128.824219 198.683594 C 126.9375 199.5625 124.84375 200.015625 122.542969 200.015625 Z M 122.527344 200.015625 "/><path style=" stroke:none;fill-rule:nonzero;fill:#fef6e5;fill-opacity:1;" d="M 148.113281 199.964844 C 145.710938 199.964844 143.5625 199.410156 141.664062 198.308594 C 139.761719 197.210938 138.261719 195.722656 137.136719 193.863281 C 136.027344 192 135.46875 189.957031 135.46875 187.722656 C 135.46875 185.484375 136.027344 183.429688 137.136719 181.59375 C 138.261719 179.757812 139.777344 178.285156 141.664062 177.183594 C 143.5625 176.085938 145.722656 175.53125 148.113281 175.53125 C 150.503906 175.53125 152.664062 176.085938 154.578125 177.183594 C 156.492188 178.285156 158.003906 179.757812 159.101562 181.59375 C 160.203125 183.429688 160.757812 185.472656 160.757812 187.722656 C 160.757812 189.972656 160.203125 192 159.101562 193.863281 C 158.003906 195.722656 156.492188 197.199219 154.578125 198.308594 C 152.664062 199.410156 150.503906 199.964844 148.113281 199.964844 Z M 148.113281 192.195312 C 149.433594 192.195312 150.492188 191.769531 151.28125 190.890625 C 152.082031 190.011719 152.484375 188.976562 152.484375 187.773438 C 152.484375 186.570312 152.082031 185.5 151.28125 184.632812 C 150.492188 183.753906 149.433594 183.3125 148.113281 183.3125 C 146.796875 183.3125 145.734375 183.753906 144.933594 184.632812 C 144.144531 185.5 143.746094 186.546875 143.746094 187.773438 C 143.746094 189 144.144531 190.011719 144.933594 190.890625 C 145.734375 191.753906 146.796875 192.195312 148.113281 192.195312 Z M 148.113281 192.195312 "/><g clip-rule="nonzero" clip-path="url(#63d0ef5857)"><path style=" stroke:none;fill-rule:nonzero;fill:#fef6e5;fill-opacity:1;" d="M 172.585938 199.28125 L 164.300781 199.28125 L 164.300781 183.183594 L 160.394531 183.183594 L 160.394531 176.28125 L 164.300781 176.28125 L 164.300781 176.136719 C 164.300781 174.082031 164.699219 172.234375 165.503906 170.578125 C 166.304688 168.925781 167.519531 167.605469 169.136719 166.625 C 170.75 165.640625 172.820312 165.148438 175.300781 165.148438 C 176.089844 165.148438 176.878906 165.214844 177.667969 165.355469 C 178.445312 165.484375 179.128906 165.679688 179.722656 165.925781 L 179.722656 173.421875 C 179.167969 173.125 178.574219 172.894531 177.925781 172.738281 C 177.28125 172.582031 176.671875 172.492188 176.089844 172.492188 C 175.019531 172.492188 174.164062 172.804688 173.53125 173.398438 C 172.910156 173.992188 172.601562 174.84375 172.601562 175.945312 L 172.601562 176.265625 L 179.21875 176.265625 L 179.21875 183.171875 L 172.601562 183.171875 L 172.601562 199.265625 Z M 172.585938 199.28125 "/></g><path style=" stroke:none;fill-rule:nonzero;fill:#fef6e5;fill-opacity:1;" d="M 192.871094 200.015625 C 190.390625 200.015625 188.332031 199.5625 186.703125 198.660156 C 185.074219 197.753906 183.875 196.5 183.070312 194.910156 C 182.285156 193.320312 181.882812 191.511719 181.882812 189.480469 L 181.882812 183.183594 L 177.976562 183.183594 L 177.976562 176.28125 L 181.882812 176.28125 L 181.882812 170.539062 L 190.15625 170.539062 L 190.15625 176.28125 L 197.707031 176.28125 L 197.707031 183.183594 L 190.15625 183.183594 L 190.15625 189.207031 C 190.15625 190.308594 190.46875 191.171875 191.101562 191.769531 C 191.734375 192.363281 192.574219 192.660156 193.648438 192.660156 C 194.230469 192.660156 194.914062 192.582031 195.703125 192.429688 C 196.480469 192.273438 197.152344 192.039062 197.707031 191.730469 L 197.707031 199.046875 C 197.125 199.34375 196.363281 199.589844 195.445312 199.757812 C 194.527344 199.925781 193.671875 200.015625 192.871094 200.015625 Z M 192.871094 200.015625 "/><path style=" stroke:none;fill-rule:nonzero;fill:#fef6e5;fill-opacity:1;" d="M 204.609375 199.835938 C 203.71875 199.835938 202.890625 199.617188 202.117188 199.175781 C 201.351562 198.738281 200.746094 198.128906 200.304688 197.367188 C 199.867188 196.589844 199.644531 195.761719 199.644531 194.871094 C 199.644531 193.980469 199.867188 193.113281 200.304688 192.363281 C 200.746094 191.613281 201.351562 191.003906 202.117188 190.566406 C 202.890625 190.125 203.71875 189.90625 204.609375 189.90625 C 205.503906 189.90625 206.355469 190.125 207.117188 190.566406 C 207.867188 191.003906 208.476562 191.613281 208.914062 192.363281 C 209.355469 193.113281 209.574219 193.941406 209.574219 194.871094 C 209.574219 195.800781 209.355469 196.589844 208.914062 197.367188 C 208.476562 198.128906 207.867188 198.738281 207.117188 199.175781 C 206.355469 199.617188 205.527344 199.835938 204.609375 199.835938 Z M 204.609375 199.835938 "/><path style=" stroke:none;fill-rule:nonzero;fill:#fef6e5;fill-opacity:1;" d="M 224.429688 200.015625 C 221.480469 200.015625 218.910156 199.410156 216.722656 198.21875 C 214.539062 197.03125 212.910156 195.273438 211.824219 192.972656 L 218.910156 189.429688 C 219.761719 191.265625 221.597656 192.183594 224.429688 192.183594 C 225.566406 192.183594 226.511719 192.015625 227.261719 191.664062 C 228.011719 191.304688 228.398438 190.761719 228.398438 190.023438 C 228.398438 189.105469 227.972656 188.511719 227.132812 188.238281 C 226.292969 187.953125 225.167969 187.710938 223.769531 187.488281 C 222.59375 187.308594 221.351562 187.050781 220.035156 186.699219 C 218.714844 186.339844 217.460938 185.808594 216.285156 185.085938 C 215.109375 184.359375 214.152344 183.390625 213.414062 182.1875 C 212.675781 180.972656 212.316406 179.449219 212.316406 177.597656 C 212.316406 175.75 212.832031 173.992188 213.867188 172.480469 C 214.914062 170.96875 216.347656 169.765625 218.160156 168.871094 C 219.96875 167.980469 222.023438 167.527344 224.324219 167.527344 C 227.054688 167.527344 229.496094 168.136719 231.65625 169.324219 C 233.828125 170.527344 235.429688 172.273438 236.464844 174.574219 L 229.382812 178.117188 C 228.953125 177.355469 228.308594 176.707031 227.429688 176.164062 C 226.550781 175.621094 225.398438 175.363281 223.964844 175.363281 C 221.871094 175.363281 220.824219 176.007812 220.824219 177.300781 C 220.824219 178.15625 221.289062 178.777344 222.21875 179.136719 C 223.164062 179.5 224.378906 179.808594 225.878906 180.054688 C 227.042969 180.238281 228.269531 180.507812 229.535156 180.855469 C 230.804688 181.207031 232.003906 181.75 233.117188 182.472656 C 234.242188 183.195312 235.160156 184.152344 235.859375 185.34375 C 236.570312 186.53125 236.917969 188.070312 236.917969 189.945312 C 236.917969 191.820312 236.347656 193.550781 235.238281 195.066406 C 234.113281 196.589844 232.613281 197.792969 230.726562 198.683594 C 228.839844 199.5625 226.742188 200.015625 224.441406 200.015625 Z M 224.429688 200.015625 "/><path style=" stroke:none;fill-rule:nonzero;fill:#fef6e5;fill-opacity:1;" d="M 246.5625 209.855469 L 238.289062 209.855469 L 238.289062 187.722656 C 238.289062 185.355469 238.832031 183.261719 239.917969 181.4375 C 241.003906 179.617188 242.488281 178.179688 244.402344 177.132812 C 246.304688 176.085938 248.488281 175.570312 250.945312 175.570312 C 253.402344 175.570312 255.496094 176.125 257.410156 177.222656 C 259.324219 178.324219 260.835938 179.796875 261.933594 181.621094 C 263.03125 183.441406 263.589844 185.472656 263.589844 187.722656 C 263.589844 190.179688 263.085938 192.324219 262.078125 194.160156 C 261.066406 195.996094 259.644531 197.429688 257.824219 198.453125 C 256 199.460938 253.867188 199.964844 251.398438 199.964844 C 250.542969 199.964844 249.691406 199.847656 248.863281 199.617188 C 248.050781 199.382812 247.273438 199.074219 246.574219 198.683594 L 246.574219 209.867188 Z M 250.933594 192.195312 C 252.25 192.195312 253.3125 191.769531 254.101562 190.890625 C 254.902344 190.011719 255.300781 188.976562 255.300781 187.773438 C 255.300781 186.570312 254.902344 185.511719 254.101562 184.644531 C 253.3125 183.792969 252.25 183.351562 250.933594 183.351562 C 249.613281 183.351562 248.554688 183.777344 247.753906 184.644531 C 246.964844 185.5 246.5625 186.546875 246.5625 187.773438 C 246.5625 189 246.964844 190.011719 247.753906 190.890625 C 248.554688 191.753906 249.613281 192.195312 250.933594 192.195312 Z M 250.933594 192.195312 "/><path style=" stroke:none;fill-rule:nonzero;fill:#fef6e5;fill-opacity:1;" d="M 274.941406 199.964844 C 272.703125 199.964844 270.738281 199.410156 269.058594 198.308594 C 267.363281 197.210938 266.046875 195.722656 265.101562 193.863281 C 264.15625 192 263.691406 189.957031 263.691406 187.722656 C 263.691406 185.484375 264.25 183.429688 265.359375 181.59375 C 266.484375 179.757812 267.996094 178.285156 269.886719 177.183594 C 271.785156 176.085938 273.945312 175.53125 276.335938 175.53125 C 278.726562 175.53125 280.964844 176.0625 282.863281 177.121094 C 284.765625 178.179688 286.265625 179.617188 287.351562 181.453125 C 288.449219 183.273438 288.992188 185.367188 288.992188 187.734375 L 288.992188 199.28125 L 281.171875 199.28125 L 281.171875 197.585938 C 280.433594 198.347656 279.554688 198.945312 278.519531 199.355469 C 277.488281 199.769531 276.296875 199.976562 274.953125 199.976562 Z M 276.335938 192.195312 C 277.65625 192.195312 278.714844 191.769531 279.503906 190.890625 C 280.304688 190.011719 280.707031 188.976562 280.707031 187.773438 C 280.707031 186.570312 280.304688 185.5 279.503906 184.632812 C 278.714844 183.753906 277.65625 183.3125 276.335938 183.3125 C 275.019531 183.3125 273.957031 183.753906 273.15625 184.632812 C 272.367188 185.5 271.964844 186.546875 271.964844 187.773438 C 271.964844 189 272.367188 190.011719 273.15625 190.890625 C 273.957031 191.753906 275.019531 192.195312 276.335938 192.195312 Z M 276.335938 192.195312 "/><path style=" stroke:none;fill-rule:nonzero;fill:#fef6e5;fill-opacity:1;" d="M 302.644531 199.925781 C 300.859375 199.953125 299.195312 199.640625 297.65625 199.007812 C 296.105469 198.363281 294.757812 197.484375 293.621094 196.359375 C 292.484375 195.234375 291.605469 193.925781 290.957031 192.441406 C 290.3125 190.953125 290 189.375 290 187.734375 C 290 186.09375 290.324219 184.503906 290.957031 183.027344 C 291.605469 181.542969 292.484375 180.238281 293.621094 179.113281 C 294.757812 177.988281 296.105469 177.121094 297.65625 176.5 C 299.207031 175.867188 300.859375 175.570312 302.644531 175.59375 C 304.945312 175.621094 307.078125 176.191406 309.058594 177.277344 C 311.035156 178.363281 312.546875 180.09375 313.59375 182.460938 L 306.730469 186.144531 C 306.367188 185.34375 305.824219 184.683594 305.113281 184.167969 C 304.417969 183.648438 303.589844 183.390625 302.632812 183.390625 C 301.3125 183.390625 300.253906 183.816406 299.453125 184.65625 C 298.664062 185.5 298.261719 186.53125 298.261719 187.761719 C 298.261719 188.988281 298.664062 190.035156 299.453125 190.890625 C 300.253906 191.742188 301.3125 192.183594 302.632812 192.183594 C 303.589844 192.183594 304.402344 191.910156 305.113281 191.378906 C 305.824219 190.835938 306.355469 190.191406 306.730469 189.429688 L 313.59375 193.113281 C 312.546875 195.464844 311.035156 197.199219 309.058594 198.296875 C 307.078125 199.382812 304.945312 199.9375 302.644531 199.976562 Z M 302.644531 199.925781 "/><g clip-rule="nonzero" clip-path="url(#91db21fd89)"><path style=" stroke:none;fill-rule:nonzero;fill:#fef6e5;fill-opacity:1;" d="M 326.097656 199.925781 C 323.640625 199.925781 321.441406 199.410156 319.492188 198.386719 C 317.550781 197.367188 316.011719 195.917969 314.886719 194.058594 C 313.777344 192.195312 313.21875 190.011719 313.21875 187.488281 C 313.21875 185.277344 313.726562 183.261719 314.746094 181.414062 C 315.765625 179.578125 317.203125 178.101562 319.050781 177.003906 C 320.898438 175.90625 323.03125 175.351562 325.464844 175.351562 C 327.894531 175.351562 330.09375 175.90625 331.851562 177.003906 C 333.609375 178.101562 334.941406 179.5625 335.84375 181.359375 C 336.75 183.160156 337.203125 185.070312 337.203125 187.113281 L 337.203125 189.195312 L 321.183594 189.195312 C 321.457031 190.332031 322.011719 191.226562 322.851562 191.886719 C 323.707031 192.542969 324.753906 192.878906 326.019531 192.878906 C 327.117188 192.878906 328.089844 192.609375 328.929688 192.066406 C 329.78125 191.511719 330.402344 190.785156 330.789062 189.90625 L 337.136719 193.074219 C 336.15625 195.21875 334.707031 196.914062 332.808594 198.128906 C 330.90625 199.332031 328.65625 199.9375 326.085938 199.9375 Z M 321.546875 184.917969 L 328.953125 184.917969 C 328.761719 184.269531 328.359375 183.703125 327.75 183.210938 C 327.132812 182.707031 326.34375 182.445312 325.359375 182.445312 C 324.378906 182.445312 323.550781 182.691406 322.902344 183.183594 C 322.246094 183.675781 321.792969 184.257812 321.546875 184.929688 Z M 321.546875 184.917969 "/></g></g></svg>